<svg width="138" height="118" viewBox="0 0 138 118" fill="none" xmlns="http://www.w3.org/2000/svg">
    <path
        d="M12.3682 38.2627V65.0596H19.7991V38.2627H12.3682ZM17.1178 44.2729H22.2888C23.4635 44.2729 24.37 44.5281 25.0084 45.0385C25.6468 45.5489 25.966 46.2763 25.966 47.2205C25.966 48.1903 25.6468 48.9304 25.0084 49.4408C24.37 49.9513 23.4635 50.2065 22.2888 50.2065H17.1178V56.1783H22.2888C24.7403 56.1783 26.7576 55.821 28.3408 55.1065C29.9496 54.3919 31.137 53.3583 31.9031 52.0057C32.6947 50.6531 33.0905 49.058 33.0905 47.2205C33.0905 45.3575 32.6947 43.7625 31.9031 42.4354C31.137 41.1083 29.9496 40.0875 28.3408 39.3729C26.7576 38.6328 24.7403 38.2627 22.2888 38.2627H17.1178V44.2729Z"
        fill="#F6F5F1" />
    <path d="M37.0561 38.2627V65.0596H44.6403V38.2627H37.0561Z" fill="#F6F5F1" />
    <path d="M49.8035 44.8854H59.6858L47.6585 65.0596H69.9895V58.7432H59.2645L71.5217 38.2627H49.8035V44.8854Z"
        fill="#F6F5F1" />
    <path d="M74.3792 44.8854H84.2616L72.2342 65.0596H94.5653V58.7432H83.8402L96.0974 38.2627H74.3792V44.8854Z"
        fill="#F6F5F1" />
    <path
        d="M104.011 60.7338H118.183L117.992 55.2596H104.241L104.011 60.7338ZM111.021 49.2494L114.583 57.2885L114.162 59.2026L117.226 65.0596H125.653L111.021 36.4635L96.4269 65.0596H104.854L107.956 58.9346L107.497 57.2885L111.021 49.2494Z"
        fill="#F6F5F1" />
    <path
        d="M16.021 90.5443H33.3351V84.3359H16.021V90.5443ZM29.0993 76.6949V98.9813H35.9013V76.6949H29.0993ZM14.5679 76.6949V98.9813H21.3698V76.6949H14.5679Z"
        fill="#F6F5F1" />
    <path
        d="M46.1993 87.8381C46.1993 86.7344 46.3952 85.7792 46.7868 84.9727C47.1784 84.1449 47.7349 83.5081 48.4564 83.0624C49.1778 82.5955 50.0435 82.362 51.0535 82.362C52.1253 82.362 53.0116 82.5955 53.7124 83.0624C54.4338 83.5081 54.98 84.1449 55.3511 84.9727C55.7221 85.7792 55.9076 86.7344 55.9076 87.8381C55.9076 88.9206 55.7118 89.8757 55.3201 90.7035C54.9285 91.5312 54.372 92.1786 53.6506 92.6456C52.9291 93.0913 52.0634 93.3142 51.0535 93.3142C50.0435 93.3142 49.1778 93.0913 48.4564 92.6456C47.7349 92.1786 47.1784 91.5312 46.7868 90.7035C46.3952 89.8757 46.1993 88.9206 46.1993 87.8381ZM38.9955 87.8381C38.9955 89.621 39.284 91.2553 39.8612 92.7411C40.4589 94.2056 41.2937 95.4791 42.3655 96.5616C43.4373 97.6441 44.705 98.4719 46.1684 99.045C47.6525 99.6393 49.2808 99.9364 51.0535 99.9364C52.8261 99.9364 54.4441 99.6393 55.9076 99.045C57.3916 98.4719 58.6696 97.6441 59.7414 96.5616C60.8132 95.4791 61.6377 94.2056 62.2148 92.7411C62.8126 91.2553 63.1115 89.621 63.1115 87.8381C63.1115 86.0552 62.8126 84.442 62.2148 82.9987C61.6171 81.5554 60.772 80.3138 59.6796 79.2737C58.5871 78.2337 57.3092 77.4377 55.8457 76.8859C54.3823 76.334 52.7849 76.0581 51.0535 76.0581C49.3633 76.0581 47.7865 76.334 46.323 76.8859C44.8596 77.4377 43.5816 78.2337 42.4892 79.2737C41.3968 80.3138 40.5414 81.5554 39.923 82.9987C39.3046 84.442 38.9955 86.0552 38.9955 87.8381Z"
        fill="#F6F5F1" />
    <path
        d="M66.0438 76.6949V91.6586C66.0438 93.2505 66.2912 94.5983 66.7859 95.702C67.3012 96.7845 68.002 97.6653 68.8883 98.3445C69.7746 99.0025 70.7846 99.4801 71.9182 99.7772C73.0725 100.096 74.2886 100.255 75.5666 100.255C76.8445 100.255 78.0503 100.096 79.184 99.7772C80.3382 99.4801 81.3585 99.0025 82.2448 98.3445C83.1312 97.6653 83.8216 96.7845 84.3163 95.702C84.8316 94.5983 85.0893 93.2505 85.0893 91.6586V76.6949H78.2873V91.0218C78.2873 91.9133 78.0606 92.6456 77.6071 93.2187C77.1743 93.7705 76.4941 94.0464 75.5666 94.0464C74.639 94.0464 73.9485 93.7705 73.4951 93.2187C73.0622 92.6456 72.8458 91.9133 72.8458 91.0218V76.6949H66.0438Z"
        fill="#F6F5F1" />
    <path
        d="M92.6052 90.5124L88.0294 93.9509C88.5241 95.0759 89.2558 96.0947 90.2246 97.0073C91.1933 97.92 92.3373 98.6311 93.6565 99.1405C94.9962 99.6711 96.4391 99.9364 97.985 99.9364C99.098 99.9364 100.18 99.7772 101.231 99.4588C102.283 99.1405 103.22 98.6735 104.045 98.058C104.89 97.4425 105.56 96.6677 106.055 95.7338C106.549 94.7787 106.797 93.6856 106.797 92.4545C106.797 91.5843 106.673 90.799 106.426 90.0986C106.178 89.3769 105.807 88.7295 105.313 88.1564C104.838 87.5834 104.261 87.0846 103.581 86.6601C102.901 86.2143 102.128 85.8323 101.262 85.5139C100.417 85.1955 99.6442 84.9196 98.9434 84.6861C98.2426 84.4314 97.6758 84.1661 97.2429 83.8902C96.8307 83.593 96.6246 83.2216 96.6246 82.7759C96.6246 82.415 96.7689 82.1497 97.0574 81.9799C97.3666 81.8101 97.7582 81.7252 98.2323 81.7252C98.6239 81.7252 99.0259 81.7995 99.4381 81.9481C99.8503 82.0967 100.252 82.3301 100.644 82.6485C101.056 82.9457 101.427 83.3596 101.757 83.8902L106.797 81.0248C106.405 80.2607 105.828 79.4966 105.065 78.7325C104.323 77.9684 103.365 77.3316 102.19 76.8222C101.036 76.3128 99.6442 76.0581 98.0159 76.0581C96.5112 76.0581 95.1302 76.3128 93.8729 76.8222C92.6155 77.3316 91.6056 78.0851 90.8429 79.0827C90.0803 80.0803 89.699 81.3113 89.699 82.7759C89.699 83.9008 89.8948 84.8772 90.2864 85.7049C90.6986 86.5327 91.2036 87.2332 91.8014 87.8062C92.4197 88.3793 93.0587 88.8463 93.7183 89.2071C94.3985 89.5679 94.9962 89.8545 95.5115 90.0667C96.6864 90.5337 97.5624 90.9051 98.1396 91.181C98.7167 91.457 99.098 91.701 99.2835 91.9133C99.4896 92.1256 99.5927 92.3803 99.5927 92.6774C99.5927 93.1656 99.4072 93.5264 99.0362 93.7599C98.6652 93.9721 98.2117 94.0783 97.6758 94.0783C97.0368 94.0783 96.3978 93.9403 95.7589 93.6644C95.1405 93.3885 94.5634 92.9852 94.0275 92.4545C93.4916 91.9027 93.0175 91.2553 92.6052 90.5124Z"
        fill="#F6F5F1" />
    <path
        d="M114.739 98.9813H125.653V93.4097H114.739V98.9813ZM114.739 82.2665H125.653V76.6949H114.739V82.2665ZM114.739 90.2259H125.034V84.8135H114.739V90.2259ZM110.039 76.6949V98.9813H116.532V76.6949H110.039Z"
        fill="#F6F5F1" />
    <path d="M0 22.6842H135.821V31.4H0V22.6842Z" fill="#F6F5F1" />
    <path d="M12.3472 0.894775H31.9577V30.6737H12.3472V0.894775Z" fill="#F6F5F1" />
    <path d="M0 108.389H135.821V117.105H0V108.389Z" fill="#F6F5F1" />
    <path d="M0 117.105L-4.12727e-06 22.6842L8.71579 22.6842L8.71579 117.105L0 117.105Z" fill="#F6F5F1" />
    <path d="M129.284 117.105L129.284 22.6842L138 22.6842L138 117.105L129.284 117.105Z" fill="#F6F5F1" />
    <path
        d="M57.4619 88.1565C57.4619 91.801 54.5073 94.7556 50.8628 94.7556C47.2182 94.7556 44.2637 91.801 44.2637 88.1565C44.2637 84.5119 47.2182 81.5574 50.8628 81.5574C54.5073 81.5574 57.4619 84.5119 57.4619 88.1565Z"
        fill="#F6F5F1" />
    <path
        d="M29.9658 48.5617C29.9658 52.2063 27.0113 55.1608 23.3667 55.1608C19.7221 55.1608 16.7676 52.2063 16.7676 48.5617C16.7676 44.9172 19.7221 41.9626 23.3667 41.9626C27.0113 41.9626 29.9658 44.9172 29.9658 48.5617Z"
        fill="#F6F5F1" />
    <path
        d="M116.853 52.9612C116.853 55.9983 114.391 58.4604 111.354 58.4604C108.317 58.4604 105.855 55.9983 105.855 52.9612C105.855 49.924 108.317 47.4619 111.354 47.4619C114.391 47.4619 116.853 49.924 116.853 52.9612Z"
        fill="#F6F5F1" />
</svg>